<svg width="24" height="24" viewBox="0 0 24 24" fill="none" xmlns="http://www.w3.org/2000/svg">
<path d="M12 20.9985C18.6667 21.0498 22 20.504 22 19.361C22 17.647 14.207 9.00195 12 9.00195C9.793 9.00195 2 17.8255 2 19.3615C2 20.3848 5.33333 20.9305 12 20.9985Z" stroke="#9AA966" stroke-width="2" stroke-linejoin="round"/>
<path d="M10.5297 14.8301L8.71973 17.0001" stroke="#9AA966" stroke-width="2" stroke-linecap="round"/>
<path d="M12.25 5.5C12.5815 5.5 12.8995 5.3683 13.1339 5.13388C13.3683 4.89946 13.5 4.58152 13.5 4.25C13.5 3.91848 13.3683 3.60054 13.1339 3.36612C12.8995 3.1317 12.5815 3 12.25 3C11.9185 3 11.6005 3.1317 11.3661 3.36612C11.1317 3.60054 11 3.91848 11 4.25C11 4.58152 11.1317 4.89946 11.3661 5.13388C11.6005 5.3683 11.9185 5.5 12.25 5.5ZM17 8C17.2652 8 17.5196 7.89464 17.7071 7.70711C17.8946 7.51957 18 7.26522 18 7C18 6.73478 17.8946 6.48043 17.7071 6.29289C17.5196 6.10536 17.2652 6 17 6C16.7348 6 16.4804 6.10536 16.2929 6.29289C16.1054 6.48043 16 6.73478 16 7C16 7.26522 16.1054 7.51957 16.2929 7.70711C16.4804 7.89464 16.7348 8 17 8ZM6 10.5C6.26522 10.5 6.51957 10.3946 6.70711 10.2071C6.89464 10.0196 7 9.76522 7 9.5C7 9.23478 6.89464 8.98043 6.70711 8.79289C6.51957 8.60536 6.26522 8.5 6 8.5C5.73478 8.5 5.48043 8.60536 5.29289 8.79289C5.10536 8.98043 5 9.23478 5 9.5C5 9.76522 5.10536 10.0196 5.29289 10.2071C5.48043 10.3946 5.73478 10.5 6 10.5ZM8.75 7.5C8.94891 7.5 9.13968 7.42098 9.28033 7.28033C9.42098 7.13968 9.5 6.94891 9.5 6.75C9.5 6.55109 9.42098 6.36032 9.28033 6.21967C9.13968 6.07902 8.94891 6 8.75 6C8.55109 6 8.36032 6.07902 8.21967 6.21967C8.07902 6.36032 8 6.55109 8 6.75C8 6.94891 8.07902 7.13968 8.21967 7.28033C8.36032 7.42098 8.55109 7.5 8.75 7.5Z" fill="#9AA966"/>
</svg>
