<svg width="24" height="24" viewBox="0 0 24 24" fill="none" xmlns="http://www.w3.org/2000/svg">
<path d="M15.916 6.00542C15.916 6.37034 15.9879 6.7317 16.1275 7.06884C16.2672 7.40599 16.4719 7.71233 16.7299 7.97037C16.988 8.22841 17.2943 8.4331 17.6314 8.57275C17.9686 8.7124 18.3299 8.78428 18.6949 8.78428C19.0598 8.78428 19.4211 8.7124 19.7583 8.57275C20.0954 8.4331 20.4018 8.22841 20.6598 7.97037C20.9179 7.71233 21.1226 7.40599 21.2622 7.06884C21.4019 6.7317 21.4737 6.37034 21.4737 6.00542C21.4737 5.26842 21.181 4.56161 20.6598 4.04047C20.1387 3.51933 19.4319 3.22656 18.6949 3.22656C17.9579 3.22656 17.2511 3.51933 16.7299 4.04047C16.2088 4.56161 15.916 5.26842 15.916 6.00542Z" stroke="#9AA966" stroke-width="1.5" stroke-linecap="round" stroke-linejoin="round"/>
<path d="M14.5257 14.3433V12.9547C14.5257 11.8488 14.9651 10.7881 15.7471 10.0061C16.5291 9.22408 17.5898 8.78474 18.6957 8.78474C19.8017 8.78474 20.8623 9.22408 21.6444 10.0061C22.4264 10.7881 22.8657 11.8488 22.8657 12.9547V14.3433M11.3149 14.3467H22.8657M6.17888 9.62045C6.95748 9.62045 7.70419 9.31115 8.25474 8.7606C8.80529 8.21005 9.11459 7.46334 9.11459 6.68474C9.11459 5.90614 8.80529 5.15943 8.25474 4.60887C7.70419 4.05832 6.95748 3.74902 6.17888 3.74902C5.40028 3.74902 4.65357 4.05832 4.10301 4.60887C3.55246 5.15943 3.24316 5.90614 3.24316 6.68474C3.24316 7.46334 3.55246 8.21005 4.10301 8.7606C4.65357 9.31115 5.40028 9.62045 6.17888 9.62045Z" stroke="#9AA966" stroke-width="1.5" stroke-linecap="round" stroke-linejoin="round"/>
<path d="M11.3147 14.7589C11.3147 13.3965 10.7735 12.09 9.81018 11.1266C8.84683 10.1633 7.54025 9.62207 6.17787 9.62207C4.81549 9.62207 3.50891 10.1633 2.54557 11.1266C1.58222 12.09 1.04102 13.3965 1.04102 14.7589V16.9601H3.24387L3.97759 22.8298H8.37987L9.11359 16.9601H11.3147V14.7589Z" stroke="#9AA966" stroke-width="1.5" stroke-linecap="round" stroke-linejoin="round"/>
</svg>
