<svg width="24" height="24" viewBox="0 0 24 24" fill="none" xmlns="http://www.w3.org/2000/svg">
<path d="M5.70039 4.20039C4.87239 4.20039 4.20039 4.87239 4.20039 5.70039V12.3004C4.20039 13.1284 4.87239 13.8004 5.70039 13.8004H7.20039V15.6004H5.70039C4.82518 15.6004 3.98581 15.2527 3.36694 14.6338C2.74807 14.015 2.40039 13.1756 2.40039 12.3004V5.70039C2.40039 4.82518 2.74807 3.98581 3.36694 3.36694C3.98581 2.74807 4.82518 2.40039 5.70039 2.40039H12.3004C13.1756 2.40039 14.015 2.74807 14.6338 3.36694C15.2527 3.98581 15.6004 4.82518 15.6004 5.70039V12.3004C15.6004 13.1756 15.2527 14.015 14.6338 14.6338C14.015 15.2527 13.1756 15.6004 12.3004 15.6004H11.4004V13.8004H12.3004C13.1284 13.8004 13.8004 13.1284 13.8004 12.3004V5.70039C13.8004 4.87239 13.1284 4.20039 12.3004 4.20039H5.70039ZM8.40039 11.7004C8.40039 10.8252 8.74807 9.98581 9.36694 9.36694C9.98581 8.74807 10.8252 8.40039 11.7004 8.40039H12.9004V10.2004H11.7004C10.8724 10.2004 10.2004 10.8724 10.2004 11.7004V18.3004C10.2004 19.1284 10.8724 19.8004 11.7004 19.8004H18.3004C19.1284 19.8004 19.8004 19.1284 19.8004 18.3004V11.7004C19.8004 10.8724 19.1284 10.2004 18.3004 10.2004H16.5004V8.40039H18.3004C19.1756 8.40039 20.015 8.74807 20.6338 9.36694C21.2527 9.98581 21.6004 10.8252 21.6004 11.7004V18.3004C21.6004 19.1756 21.2527 20.015 20.6338 20.6338C20.015 21.2527 19.1756 21.6004 18.3004 21.6004H11.7004C10.8252 21.6004 9.98581 21.2527 9.36694 20.6338C8.74807 20.015 8.40039 19.1756 8.40039 18.3004V11.7004Z" fill="#9AA966"/>
</svg>
