<?xml version="1.0" encoding="UTF-8"?>
<svg width="340" height="260" version="1.1" xmlns="http://www.w3.org/2000/svg">
 <path d="m63.4 33.4c-16.62 0-30 13.38-30 30v133.2c0 16.62 13.38 30 30 30h213.2c16.62 0 30-13.38 30-30v-133.2c0-16.62-13.38-30-30-30zm0-23.4h213.2c29.584 0 53.4 23.816 53.4 53.4v133.2c0 29.584-23.816 53.4-53.4 53.4h-213.2c-29.584 0-53.4-23.816-53.4-53.4v-133.2c0-29.584 23.816-53.4 53.4-53.4z"/>
 <path d="m80.2 179.8h23.4v-134.7h-23.4z"/>
 <path d="m45.1 161.5v22.4a31 31 0 0 0 31 31h117.6a31 31 0 0 0 31-31v-34.6a31 31 0 0 0-31-31h-47.4a7.6 7.6 0 0 1-7.6-7.6v-34.6a7.6 7.6 0 0 1 7.6-7.6h117.6a7.6 7.6 0 0 1 7.6 7.6v22.4h23.4v-22.4a31 31 0 0 0-31-31h-117.6a31 31 0 0 0-31 31v34.6a31 31 0 0 0 31 31h47.4a7.6 7.6 0 0 1 7.6 7.6v34.6a7.6 7.6 0 0 1-7.6 7.6h-117.6a7.6 7.6 0 0 1-7.6-7.6v-22.4z"/>
 <path d="m236.4 214.9v-134.7h23.4v134.7z"/>
</svg>
