<svg width="24" height="24" viewBox="0 0 24 24" fill="none" xmlns="http://www.w3.org/2000/svg">
<path d="M18 15.75H15.75C15.3522 15.75 14.9706 15.592 14.6893 15.3107C14.408 15.0294 14.25 14.6478 14.25 14.25V9.75C14.25 9.35218 14.408 8.97064 14.6893 8.68934C14.9706 8.40804 15.3522 8.25 15.75 8.25H18C18.3978 8.25 18.7794 8.40804 19.0607 8.68934C19.342 8.97064 19.5 9.35218 19.5 9.75V14.25C19.5 14.6478 19.342 15.0294 19.0607 15.3107C18.7794 15.592 18.3978 15.75 18 15.75ZM15.75 9.75V14.25H18V9.75H15.75ZM11.25 15.75H7.5V14.25H11.25V12.75H9C8.60218 12.75 8.22064 12.592 7.93934 12.3107C7.65804 12.0294 7.5 11.6478 7.5 11.25V9.75C7.5 9.35218 7.65804 8.97064 7.93934 8.68934C8.22064 8.40804 8.60218 8.25 9 8.25H12.75V9.75H9V11.25H11.25C11.6478 11.25 12.0294 11.408 12.3107 11.6893C12.592 11.9706 12.75 12.3522 12.75 12.75V14.25C12.75 14.6478 12.592 15.0294 12.3107 15.3107C12.0294 15.592 11.6478 15.75 11.25 15.75ZM4.5 8.25H6V15.75H4.5V8.25Z" fill="#9AA966"/>
<path d="M21 4.5H3C2.60218 4.5 2.22064 4.65804 1.93934 4.93934C1.65804 5.22064 1.5 5.60218 1.5 6V18C1.5 18.3978 1.65804 18.7794 1.93934 19.0607C2.22064 19.342 2.60218 19.5 3 19.5H21C21.3978 19.5 21.7794 19.342 22.0607 19.0607C22.342 18.7794 22.5 18.3978 22.5 18V6C22.5 5.60218 22.342 5.22064 22.0607 4.93934C21.7794 4.65804 21.3978 4.5 21 4.5ZM3 18V6H21V18H3Z" fill="#9AA966"/>
</svg>
