<svg width="24" height="24" viewBox="0 0 24 24" fill="none" xmlns="http://www.w3.org/2000/svg">
<path d="M17.414 10.414C18 9.828 18 8.886 18 7C18 5.114 18 4.172 17.414 3.586M17.414 10.414C16.828 11 15.886 11 14 11H10C8.114 11 7.172 11 6.586 10.414M17.414 3.586C16.828 3 15.886 3 14 3H10C8.114 3 7.172 3 6.586 3.586M6.586 3.586C6 4.172 6 5.114 6 7C6 8.886 6 9.828 6.586 10.414M13 7C13 7.26522 12.8946 7.51957 12.7071 7.70711C12.5196 7.89464 12.2652 8 12 8C11.7348 8 11.4804 7.89464 11.2929 7.70711C11.1054 7.51957 11 7.26522 11 7C11 6.73478 11.1054 6.48043 11.2929 6.29289C11.4804 6.10536 11.7348 6 12 6C12.2652 6 12.5196 6.10536 12.7071 6.29289C12.8946 6.48043 13 6.73478 13 7Z" stroke="#9AA966" stroke-width="1.5"/>
<path d="M18 6C17.2044 6 16.4413 5.68393 15.8787 5.12132C15.3161 4.55871 15 3.79565 15 3M18 8C17.2044 8 16.4413 8.31607 15.8787 8.87868C15.3161 9.44129 15 10.2044 15 11M6 6C6.79565 6 7.55871 5.68393 8.12132 5.12132C8.68393 4.55871 9 3.79565 9 3M6 8C6.79565 8 7.55871 8.31607 8.12132 8.87868C8.68393 9.44129 9 10.2044 9 11M5 20.388H7.26C8.27 20.388 9.293 20.494 10.276 20.696C12.0311 21.0554 13.8367 21.0954 15.606 20.814C16.474 20.674 17.326 20.459 18.098 20.087C18.794 19.75 19.647 19.277 20.22 18.746C20.792 18.216 21.388 17.349 21.81 16.671C22.174 16.089 21.998 15.376 21.424 14.943C21.1013 14.7088 20.7127 14.5827 20.314 14.5827C19.9153 14.5827 19.5267 14.7088 19.204 14.943L17.397 16.308C16.697 16.838 15.932 17.325 15.021 17.47C14.911 17.4873 14.796 17.503 14.676 17.517M14.676 17.517L14.566 17.529M14.676 17.517C14.836 17.4736 14.9828 17.3912 15.103 17.277C15.2539 17.1468 15.3772 16.9876 15.4655 16.8089C15.5538 16.6302 15.6054 16.4356 15.6171 16.2366C15.6289 16.0377 15.6006 15.8383 15.5339 15.6505C15.4672 15.4626 15.3636 15.2901 15.229 15.143C15.0987 14.9983 14.9469 14.8746 14.779 14.776C11.982 13.107 7.629 14.378 5 16.243M14.676 17.517C14.6399 17.5251 14.603 17.5291 14.566 17.529M14.566 17.529C13.9629 17.5894 13.3554 17.5908 12.752 17.533" stroke="#9AA966" stroke-width="1.5" stroke-linecap="round"/>
<path d="M5 15.5C5 14.6716 4.32843 14 3.5 14C2.67157 14 2 14.6716 2 15.5V20.5C2 21.3284 2.67157 22 3.5 22C4.32843 22 5 21.3284 5 20.5V15.5Z" stroke="#9AA966" stroke-width="1.5"/>
</svg>
