<svg width="24" height="24" viewBox="0 0 24 24" fill="none" xmlns="http://www.w3.org/2000/svg">
<path d="M12 4.5C6.615 4.5 2.25 6.3465 2.25 8.625V15.375C2.25 17.6535 6.615 19.5 12 19.5C17.385 19.5 21.75 17.6535 21.75 15.375V8.625C21.75 6.3465 17.385 4.5 12 4.5ZM12 6C12.6698 6 13.3005 6.03 13.8923 6.0825C14.016 6.093 14.13 6.10875 14.25 6.1215V6.45C14.25 7.44 13.2375 8.25 12 8.25C10.7625 8.25 9.75 7.44 9.75 6.45V6.1215C10.4452 6.0465 11.19 6 12 6ZM9.672 6.1305C9.422 6.1575 9.1795 6.18925 8.9445 6.22575C9.0465 6.21 9.14325 6.19125 9.249 6.177C9.3855 6.159 9.531 6.14625 9.672 6.1305ZM14.328 6.1305C14.469 6.1455 14.6145 6.159 14.751 6.177C14.856 6.192 14.9535 6.21 15.0555 6.22575C14.8138 6.18835 14.5712 6.1566 14.328 6.1305ZM8.643 6.273C8.511 6.2955 8.38575 6.32175 8.259 6.34725C8.3265 6.33375 8.38125 6.31575 8.451 6.303C8.5125 6.29175 8.58 6.2835 8.64225 6.273H8.643ZM15.3577 6.273C15.42 6.2835 15.4875 6.29175 15.549 6.303C15.6188 6.31575 15.6735 6.33375 15.741 6.34725C15.6143 6.32175 15.489 6.29475 15.3577 6.27225V6.273ZM7.89 6.432L8.67 7.78575C9 8.34075 9.0825 8.99325 8.9175 9.62325C8.77899 10.1125 8.49139 10.5464 8.09475 10.8645C5.26575 10.2795 3.75 9.1725 3.75 8.625C3.75 8.5775 3.76125 8.52575 3.78375 8.46975C4.01325 7.9035 5.43825 6.97425 7.89 6.432ZM16.11 6.432C18.8025 7.0275 20.25 8.091 20.25 8.625C20.25 9.1725 18.7335 10.2803 15.9037 10.8645C15.505 10.5481 15.2171 10.1132 15.0817 9.6225C14.9167 8.9925 14.9993 8.34 15.3218 7.785L16.11 6.432ZM12 9.75C12.9825 9.75 13.8 10.335 14.085 11.145C14.3678 11.1187 14.637 11.0858 14.9025 11.049C13.9411 11.1855 12.9711 11.2527 12 11.25C10.932 11.25 9.9675 11.1735 9.0975 11.049C9.363 11.0865 9.63225 11.1188 9.915 11.1442C10.2 10.335 11.0175 9.75 12 9.75ZM3.75 10.8165C5.475 11.9767 8.52 12.75 12 12.75C15.48 12.75 18.525 11.9767 20.25 10.8165V15.375C20.25 16.137 17.3588 18 12 18C6.64125 18 3.75 16.137 3.75 15.375V10.8165Z" fill="#9AA966"/>
</svg>
