<svg width="24" height="24" viewBox="0 0 24 24" fill="none" xmlns="http://www.w3.org/2000/svg">
<path d="M19.5 19.5C19.5 20.163 19.2366 20.7989 18.7678 21.2678C18.2989 21.7366 17.663 22 17 22C16.337 22 15.7011 21.7366 15.2322 21.2678C14.7634 20.7989 14.5 20.163 14.5 19.5C14.5 18.837 14.7634 18.2011 15.2322 17.7322C15.7011 17.2634 16.337 17 17 17C17.663 17 18.2989 17.2634 18.7678 17.7322C19.2366 18.2011 19.5 18.837 19.5 19.5ZM9.5 19.5C9.5 20.163 9.23661 20.7989 8.76777 21.2678C8.29893 21.7366 7.66304 22 7 22C6.33696 22 5.70107 21.7366 5.23223 21.2678C4.76339 20.7989 4.5 20.163 4.5 19.5C4.5 18.837 4.76339 18.2011 5.23223 17.7322C5.70107 17.2634 6.33696 17 7 17C7.66304 17 8.29893 17.2634 8.76777 17.7322C9.23661 18.2011 9.5 18.837 9.5 19.5Z" stroke="#9AA966" stroke-width="1.5" stroke-linecap="round" stroke-linejoin="round"/>
<path d="M14.5 19.5H9.5M19.5 19.5H20.263C20.483 19.5 20.593 19.5 20.685 19.488C21.016 19.4468 21.3239 19.2964 21.5599 19.0606C21.7959 18.8248 21.9465 18.517 21.988 18.186C22 18.093 22 17.983 22 17.763V15C22 13.2761 21.3152 11.6228 20.0962 10.4038C18.8772 9.18482 17.2239 8.5 15.5 8.5M11 6H12C13.414 6 14.121 6 14.56 6.44C15 6.878 15 7.585 15 9V17.5M2 12V17C2 17.935 2 18.402 2.201 18.75C2.33265 18.978 2.52199 19.1674 2.75 19.299C3.098 19.5 3.565 19.5 4.5 19.5M7.85 7.85L6.5 6.95V4.7M2 6.5C2 7.09095 2.1164 7.67611 2.34254 8.22208C2.56869 8.76804 2.90016 9.26412 3.31802 9.68198C3.73588 10.0998 4.23196 10.4313 4.77792 10.6575C5.32389 10.8836 5.90905 11 6.5 11C7.09095 11 7.67611 10.8836 8.22208 10.6575C8.76804 10.4313 9.26412 10.0998 9.68198 9.68198C10.0998 9.26412 10.4313 8.76804 10.6575 8.22208C10.8836 7.67611 11 7.09095 11 6.5C11 5.30653 10.5259 4.16193 9.68198 3.31802C8.83807 2.47411 7.69347 2 6.5 2C5.30653 2 4.16193 2.47411 3.31802 3.31802C2.47411 4.16193 2 5.30653 2 6.5Z" stroke="#9AA966" stroke-width="1.5" stroke-linecap="round" stroke-linejoin="round"/>
</svg>
